<mxfile host="app.diagrams.net" agent="Mozilla/5.0 (Windows NT 10.0; Win64; x64) AppleWebKit/537.36 (KHTML, like Gecko) Chrome/126.0.0.0 Safari/537.36" version="24.7.6">
  <diagram name="Page-1" id="8fEsWU7mBQ7dZBVTXYHx">
    <mxGraphModel dx="1838" dy="953" grid="1" gridSize="10" guides="1" tooltips="1" connect="1" arrows="1" fold="1" page="1" pageScale="1" pageWidth="827" pageHeight="1169" math="0" shadow="0">
      <root>
        <mxCell id="0" />
        <mxCell id="1" parent="0" />
        <mxCell id="IcS0ZcLBkt1m_JvbGS-I-1" value="" style="rounded=0;whiteSpace=wrap;html=1;" vertex="1" parent="1">
          <mxGeometry x="350" y="230" width="320" height="340" as="geometry" />
        </mxCell>
        <mxCell id="IcS0ZcLBkt1m_JvbGS-I-2" value="" style="rounded=0;whiteSpace=wrap;html=1;" vertex="1" parent="1">
          <mxGeometry x="370" y="290" width="290" height="20" as="geometry" />
        </mxCell>
        <mxCell id="IcS0ZcLBkt1m_JvbGS-I-3" value="Introduction" style="rounded=0;whiteSpace=wrap;html=1;" vertex="1" parent="1">
          <mxGeometry x="370" y="290" width="70" height="20" as="geometry" />
        </mxCell>
        <mxCell id="IcS0ZcLBkt1m_JvbGS-I-4" value="Engineers" style="rounded=0;whiteSpace=wrap;html=1;" vertex="1" parent="1">
          <mxGeometry x="440" y="290" width="70" height="20" as="geometry" />
        </mxCell>
        <mxCell id="IcS0ZcLBkt1m_JvbGS-I-5" value="Home Issues" style="rounded=0;whiteSpace=wrap;html=1;" vertex="1" parent="1">
          <mxGeometry x="510" y="290" width="80" height="20" as="geometry" />
        </mxCell>
        <mxCell id="IcS0ZcLBkt1m_JvbGS-I-6" value="News" style="rounded=0;whiteSpace=wrap;html=1;" vertex="1" parent="1">
          <mxGeometry x="590" y="290" width="70" height="20" as="geometry" />
        </mxCell>
        <mxCell id="IcS0ZcLBkt1m_JvbGS-I-7" value="Home Repair" style="rounded=0;whiteSpace=wrap;html=1;" vertex="1" parent="1">
          <mxGeometry x="450" y="250" width="120" height="30" as="geometry" />
        </mxCell>
        <mxCell id="IcS0ZcLBkt1m_JvbGS-I-8" value="login/register" style="rounded=0;whiteSpace=wrap;html=1;fontSize=6;" vertex="1" parent="1">
          <mxGeometry x="610" y="240" width="50" height="20" as="geometry" />
        </mxCell>
        <mxCell id="IcS0ZcLBkt1m_JvbGS-I-9" value="Text" style="rounded=0;whiteSpace=wrap;html=1;" vertex="1" parent="1">
          <mxGeometry x="370" y="320" width="290" height="60" as="geometry" />
        </mxCell>
        <mxCell id="IcS0ZcLBkt1m_JvbGS-I-10" value="image" style="rounded=0;whiteSpace=wrap;html=1;" vertex="1" parent="1">
          <mxGeometry x="370" y="390" width="290" height="70" as="geometry" />
        </mxCell>
        <mxCell id="IcS0ZcLBkt1m_JvbGS-I-11" value="copy right" style="rounded=0;whiteSpace=wrap;html=1;" vertex="1" parent="1">
          <mxGeometry x="350" y="550" width="320" height="20" as="geometry" />
        </mxCell>
        <mxCell id="IcS0ZcLBkt1m_JvbGS-I-12" value="image" style="rounded=0;whiteSpace=wrap;html=1;" vertex="1" parent="1">
          <mxGeometry x="370" y="470" width="290" height="70" as="geometry" />
        </mxCell>
        <mxCell id="IcS0ZcLBkt1m_JvbGS-I-13" value="" style="rounded=0;whiteSpace=wrap;html=1;" vertex="1" parent="1">
          <mxGeometry x="740" y="230" width="320" height="430" as="geometry" />
        </mxCell>
        <mxCell id="IcS0ZcLBkt1m_JvbGS-I-14" value="" style="rounded=0;whiteSpace=wrap;html=1;" vertex="1" parent="1">
          <mxGeometry x="760" y="290" width="290" height="20" as="geometry" />
        </mxCell>
        <mxCell id="IcS0ZcLBkt1m_JvbGS-I-15" value="Introduction" style="rounded=0;whiteSpace=wrap;html=1;" vertex="1" parent="1">
          <mxGeometry x="760" y="290" width="70" height="20" as="geometry" />
        </mxCell>
        <mxCell id="IcS0ZcLBkt1m_JvbGS-I-16" value="Engineers" style="rounded=0;whiteSpace=wrap;html=1;" vertex="1" parent="1">
          <mxGeometry x="830" y="290" width="70" height="20" as="geometry" />
        </mxCell>
        <mxCell id="IcS0ZcLBkt1m_JvbGS-I-17" value="Home Issues" style="rounded=0;whiteSpace=wrap;html=1;" vertex="1" parent="1">
          <mxGeometry x="900" y="290" width="80" height="20" as="geometry" />
        </mxCell>
        <mxCell id="IcS0ZcLBkt1m_JvbGS-I-18" value="News" style="rounded=0;whiteSpace=wrap;html=1;" vertex="1" parent="1">
          <mxGeometry x="980" y="290" width="70" height="20" as="geometry" />
        </mxCell>
        <mxCell id="IcS0ZcLBkt1m_JvbGS-I-19" value="Home Repair" style="rounded=0;whiteSpace=wrap;html=1;" vertex="1" parent="1">
          <mxGeometry x="840" y="250" width="120" height="30" as="geometry" />
        </mxCell>
        <mxCell id="IcS0ZcLBkt1m_JvbGS-I-20" value="login/register" style="rounded=0;whiteSpace=wrap;html=1;fontSize=6;" vertex="1" parent="1">
          <mxGeometry x="1000" y="240" width="50" height="20" as="geometry" />
        </mxCell>
        <mxCell id="IcS0ZcLBkt1m_JvbGS-I-22" value="image" style="rounded=0;whiteSpace=wrap;html=1;" vertex="1" parent="1">
          <mxGeometry x="760" y="365" width="80" height="65" as="geometry" />
        </mxCell>
        <mxCell id="IcS0ZcLBkt1m_JvbGS-I-23" value="copy right" style="rounded=0;whiteSpace=wrap;html=1;" vertex="1" parent="1">
          <mxGeometry x="740" y="630" width="320" height="30" as="geometry" />
        </mxCell>
        <mxCell id="IcS0ZcLBkt1m_JvbGS-I-24" value="Engineer List" style="rounded=0;whiteSpace=wrap;html=1;" vertex="1" parent="1">
          <mxGeometry x="760" y="450" width="110" height="30" as="geometry" />
        </mxCell>
        <mxCell id="IcS0ZcLBkt1m_JvbGS-I-25" value="" style="rounded=0;whiteSpace=wrap;html=1;" vertex="1" parent="1">
          <mxGeometry x="1120" y="230" width="330" height="510" as="geometry" />
        </mxCell>
        <mxCell id="IcS0ZcLBkt1m_JvbGS-I-26" value="" style="rounded=0;whiteSpace=wrap;html=1;" vertex="1" parent="1">
          <mxGeometry x="1140" y="290" width="290" height="20" as="geometry" />
        </mxCell>
        <mxCell id="IcS0ZcLBkt1m_JvbGS-I-27" value="Introduction" style="rounded=0;whiteSpace=wrap;html=1;" vertex="1" parent="1">
          <mxGeometry x="1140" y="290" width="70" height="20" as="geometry" />
        </mxCell>
        <mxCell id="IcS0ZcLBkt1m_JvbGS-I-28" value="Engineers" style="rounded=0;whiteSpace=wrap;html=1;" vertex="1" parent="1">
          <mxGeometry x="1210" y="290" width="70" height="20" as="geometry" />
        </mxCell>
        <mxCell id="IcS0ZcLBkt1m_JvbGS-I-29" value="Home Issues" style="rounded=0;whiteSpace=wrap;html=1;" vertex="1" parent="1">
          <mxGeometry x="1280" y="290" width="80" height="20" as="geometry" />
        </mxCell>
        <mxCell id="IcS0ZcLBkt1m_JvbGS-I-30" value="News" style="rounded=0;whiteSpace=wrap;html=1;" vertex="1" parent="1">
          <mxGeometry x="1360" y="290" width="70" height="20" as="geometry" />
        </mxCell>
        <mxCell id="IcS0ZcLBkt1m_JvbGS-I-31" value="Home Repair" style="rounded=0;whiteSpace=wrap;html=1;" vertex="1" parent="1">
          <mxGeometry x="1220" y="250" width="120" height="30" as="geometry" />
        </mxCell>
        <mxCell id="IcS0ZcLBkt1m_JvbGS-I-32" value="login/register" style="rounded=0;whiteSpace=wrap;html=1;fontSize=6;" vertex="1" parent="1">
          <mxGeometry x="1380" y="240" width="50" height="20" as="geometry" />
        </mxCell>
        <mxCell id="IcS0ZcLBkt1m_JvbGS-I-35" value="copy right" style="rounded=0;whiteSpace=wrap;html=1;" vertex="1" parent="1">
          <mxGeometry x="1120" y="720" width="330" height="20" as="geometry" />
        </mxCell>
        <mxCell id="IcS0ZcLBkt1m_JvbGS-I-37" value="Star Engineer" style="rounded=0;whiteSpace=wrap;html=1;align=left;" vertex="1" parent="1">
          <mxGeometry x="760" y="320" width="80" height="30" as="geometry" />
        </mxCell>
        <mxCell id="IcS0ZcLBkt1m_JvbGS-I-38" value="image" style="rounded=0;whiteSpace=wrap;html=1;" vertex="1" parent="1">
          <mxGeometry x="850" y="365" width="80" height="65" as="geometry" />
        </mxCell>
        <mxCell id="IcS0ZcLBkt1m_JvbGS-I-39" value="image" style="rounded=0;whiteSpace=wrap;html=1;" vertex="1" parent="1">
          <mxGeometry x="950" y="365" width="80" height="65" as="geometry" />
        </mxCell>
        <mxCell id="IcS0ZcLBkt1m_JvbGS-I-40" value="" style="rounded=0;whiteSpace=wrap;html=1;" vertex="1" parent="1">
          <mxGeometry x="760" y="490" width="280" height="20" as="geometry" />
        </mxCell>
        <mxCell id="IcS0ZcLBkt1m_JvbGS-I-41" value="Type" style="rounded=0;whiteSpace=wrap;html=1;" vertex="1" parent="1">
          <mxGeometry x="760" y="490" width="70" height="20" as="geometry" />
        </mxCell>
        <mxCell id="IcS0ZcLBkt1m_JvbGS-I-42" value="Area" style="rounded=0;whiteSpace=wrap;html=1;" vertex="1" parent="1">
          <mxGeometry x="830" y="490" width="70" height="20" as="geometry" />
        </mxCell>
        <mxCell id="IcS0ZcLBkt1m_JvbGS-I-43" value="Saticification" style="rounded=0;whiteSpace=wrap;html=1;" vertex="1" parent="1">
          <mxGeometry x="900" y="490" width="70" height="20" as="geometry" />
        </mxCell>
        <mxCell id="IcS0ZcLBkt1m_JvbGS-I-44" value="Price" style="rounded=0;whiteSpace=wrap;html=1;" vertex="1" parent="1">
          <mxGeometry x="970" y="490" width="70" height="20" as="geometry" />
        </mxCell>
        <mxCell id="IcS0ZcLBkt1m_JvbGS-I-45" value="image" style="rounded=0;whiteSpace=wrap;html=1;" vertex="1" parent="1">
          <mxGeometry x="760" y="519.5" width="80" height="65" as="geometry" />
        </mxCell>
        <mxCell id="IcS0ZcLBkt1m_JvbGS-I-46" value="image" style="rounded=0;whiteSpace=wrap;html=1;" vertex="1" parent="1">
          <mxGeometry x="850" y="520" width="80" height="65" as="geometry" />
        </mxCell>
        <mxCell id="IcS0ZcLBkt1m_JvbGS-I-47" value="image" style="rounded=0;whiteSpace=wrap;html=1;" vertex="1" parent="1">
          <mxGeometry x="950" y="520" width="80" height="65" as="geometry" />
        </mxCell>
        <mxCell id="IcS0ZcLBkt1m_JvbGS-I-48" value="search" style="rounded=0;whiteSpace=wrap;html=1;" vertex="1" parent="1">
          <mxGeometry x="930" y="450" width="100" height="30" as="geometry" />
        </mxCell>
        <mxCell id="IcS0ZcLBkt1m_JvbGS-I-49" value="" style="rounded=0;whiteSpace=wrap;html=1;" vertex="1" parent="1">
          <mxGeometry x="845" y="600" width="105" height="20" as="geometry" />
        </mxCell>
        <mxCell id="IcS0ZcLBkt1m_JvbGS-I-50" value="1" style="rounded=0;whiteSpace=wrap;html=1;" vertex="1" parent="1">
          <mxGeometry x="845" y="600" width="35" height="20" as="geometry" />
        </mxCell>
        <mxCell id="IcS0ZcLBkt1m_JvbGS-I-51" value="2" style="rounded=0;whiteSpace=wrap;html=1;" vertex="1" parent="1">
          <mxGeometry x="880" y="600" width="35" height="20" as="geometry" />
        </mxCell>
        <mxCell id="IcS0ZcLBkt1m_JvbGS-I-52" value="next" style="rounded=0;whiteSpace=wrap;html=1;" vertex="1" parent="1">
          <mxGeometry x="915" y="600" width="35" height="20" as="geometry" />
        </mxCell>
        <mxCell id="IcS0ZcLBkt1m_JvbGS-I-53" value="Emergency" style="rounded=0;whiteSpace=wrap;html=1;align=left;" vertex="1" parent="1">
          <mxGeometry x="1140" y="320" width="80" height="30" as="geometry" />
        </mxCell>
        <mxCell id="IcS0ZcLBkt1m_JvbGS-I-54" value="image" style="rounded=0;whiteSpace=wrap;html=1;" vertex="1" parent="1">
          <mxGeometry x="1140" y="360" width="130" height="70" as="geometry" />
        </mxCell>
        <mxCell id="IcS0ZcLBkt1m_JvbGS-I-55" value="info" style="rounded=0;whiteSpace=wrap;html=1;" vertex="1" parent="1">
          <mxGeometry x="1310" y="360" width="100" height="70" as="geometry" />
        </mxCell>
        <mxCell id="IcS0ZcLBkt1m_JvbGS-I-56" value="image" style="rounded=0;whiteSpace=wrap;html=1;" vertex="1" parent="1">
          <mxGeometry x="1140" y="440" width="130" height="70" as="geometry" />
        </mxCell>
        <mxCell id="IcS0ZcLBkt1m_JvbGS-I-57" value="info" style="rounded=0;whiteSpace=wrap;html=1;" vertex="1" parent="1">
          <mxGeometry x="1310" y="440" width="100" height="70" as="geometry" />
        </mxCell>
        <mxCell id="IcS0ZcLBkt1m_JvbGS-I-58" value="Urgent List" style="rounded=0;whiteSpace=wrap;html=1;align=left;" vertex="1" parent="1">
          <mxGeometry x="1140" y="519.5" width="80" height="30" as="geometry" />
        </mxCell>
        <mxCell id="IcS0ZcLBkt1m_JvbGS-I-59" value="image" style="rounded=0;whiteSpace=wrap;html=1;" vertex="1" parent="1">
          <mxGeometry x="1140" y="560" width="110" height="70" as="geometry" />
        </mxCell>
        <mxCell id="IcS0ZcLBkt1m_JvbGS-I-60" value="image" style="rounded=0;whiteSpace=wrap;html=1;" vertex="1" parent="1">
          <mxGeometry x="1305" y="560" width="110" height="70" as="geometry" />
        </mxCell>
        <mxCell id="IcS0ZcLBkt1m_JvbGS-I-61" value="info" style="rounded=0;whiteSpace=wrap;html=1;" vertex="1" parent="1">
          <mxGeometry x="1140" y="630" width="110" height="20" as="geometry" />
        </mxCell>
        <mxCell id="IcS0ZcLBkt1m_JvbGS-I-62" value="info" style="rounded=0;whiteSpace=wrap;html=1;" vertex="1" parent="1">
          <mxGeometry x="1305" y="630" width="110" height="20" as="geometry" />
        </mxCell>
        <mxCell id="IcS0ZcLBkt1m_JvbGS-I-68" value="1" style="rounded=0;whiteSpace=wrap;html=1;" vertex="1" parent="1">
          <mxGeometry x="1240" y="690" width="35" height="20" as="geometry" />
        </mxCell>
        <mxCell id="IcS0ZcLBkt1m_JvbGS-I-69" value="2" style="rounded=0;whiteSpace=wrap;html=1;" vertex="1" parent="1">
          <mxGeometry x="1275" y="690" width="35" height="20" as="geometry" />
        </mxCell>
        <mxCell id="IcS0ZcLBkt1m_JvbGS-I-70" value="next" style="rounded=0;whiteSpace=wrap;html=1;" vertex="1" parent="1">
          <mxGeometry x="1310" y="690" width="35" height="20" as="geometry" />
        </mxCell>
        <mxCell id="IcS0ZcLBkt1m_JvbGS-I-71" value="" style="rounded=0;whiteSpace=wrap;html=1;" vertex="1" parent="1">
          <mxGeometry x="1520" y="230" width="330" height="510" as="geometry" />
        </mxCell>
        <mxCell id="IcS0ZcLBkt1m_JvbGS-I-72" value="" style="rounded=0;whiteSpace=wrap;html=1;" vertex="1" parent="1">
          <mxGeometry x="1540" y="290" width="290" height="20" as="geometry" />
        </mxCell>
        <mxCell id="IcS0ZcLBkt1m_JvbGS-I-73" value="Introduction" style="rounded=0;whiteSpace=wrap;html=1;" vertex="1" parent="1">
          <mxGeometry x="1540" y="290" width="70" height="20" as="geometry" />
        </mxCell>
        <mxCell id="IcS0ZcLBkt1m_JvbGS-I-74" value="Engineers" style="rounded=0;whiteSpace=wrap;html=1;" vertex="1" parent="1">
          <mxGeometry x="1610" y="290" width="70" height="20" as="geometry" />
        </mxCell>
        <mxCell id="IcS0ZcLBkt1m_JvbGS-I-75" value="Home Issues" style="rounded=0;whiteSpace=wrap;html=1;" vertex="1" parent="1">
          <mxGeometry x="1680" y="290" width="80" height="20" as="geometry" />
        </mxCell>
        <mxCell id="IcS0ZcLBkt1m_JvbGS-I-76" value="News" style="rounded=0;whiteSpace=wrap;html=1;" vertex="1" parent="1">
          <mxGeometry x="1760" y="290" width="70" height="20" as="geometry" />
        </mxCell>
        <mxCell id="IcS0ZcLBkt1m_JvbGS-I-77" value="Home Repair" style="rounded=0;whiteSpace=wrap;html=1;" vertex="1" parent="1">
          <mxGeometry x="1620" y="250" width="120" height="30" as="geometry" />
        </mxCell>
        <mxCell id="IcS0ZcLBkt1m_JvbGS-I-78" value="login/register" style="rounded=0;whiteSpace=wrap;html=1;fontSize=6;" vertex="1" parent="1">
          <mxGeometry x="1780" y="240" width="50" height="20" as="geometry" />
        </mxCell>
        <mxCell id="IcS0ZcLBkt1m_JvbGS-I-79" value="copy right" style="rounded=0;whiteSpace=wrap;html=1;" vertex="1" parent="1">
          <mxGeometry x="1520" y="720" width="330" height="20" as="geometry" />
        </mxCell>
        <mxCell id="IcS0ZcLBkt1m_JvbGS-I-81" value="image" style="rounded=0;whiteSpace=wrap;html=1;" vertex="1" parent="1">
          <mxGeometry x="1540" y="360" width="130" height="70" as="geometry" />
        </mxCell>
        <mxCell id="IcS0ZcLBkt1m_JvbGS-I-82" value="info" style="rounded=0;whiteSpace=wrap;html=1;" vertex="1" parent="1">
          <mxGeometry x="1710" y="360" width="100" height="70" as="geometry" />
        </mxCell>
        <mxCell id="IcS0ZcLBkt1m_JvbGS-I-83" value="image" style="rounded=0;whiteSpace=wrap;html=1;" vertex="1" parent="1">
          <mxGeometry x="1540" y="440" width="130" height="70" as="geometry" />
        </mxCell>
        <mxCell id="IcS0ZcLBkt1m_JvbGS-I-84" value="info" style="rounded=0;whiteSpace=wrap;html=1;" vertex="1" parent="1">
          <mxGeometry x="1710" y="440" width="100" height="70" as="geometry" />
        </mxCell>
        <mxCell id="IcS0ZcLBkt1m_JvbGS-I-90" value="1" style="rounded=0;whiteSpace=wrap;html=1;" vertex="1" parent="1">
          <mxGeometry x="1640" y="690" width="35" height="20" as="geometry" />
        </mxCell>
        <mxCell id="IcS0ZcLBkt1m_JvbGS-I-91" value="2" style="rounded=0;whiteSpace=wrap;html=1;" vertex="1" parent="1">
          <mxGeometry x="1675" y="690" width="35" height="20" as="geometry" />
        </mxCell>
        <mxCell id="IcS0ZcLBkt1m_JvbGS-I-92" value="next" style="rounded=0;whiteSpace=wrap;html=1;" vertex="1" parent="1">
          <mxGeometry x="1710" y="690" width="35" height="20" as="geometry" />
        </mxCell>
        <mxCell id="IcS0ZcLBkt1m_JvbGS-I-93" value="image" style="rounded=0;whiteSpace=wrap;html=1;" vertex="1" parent="1">
          <mxGeometry x="1540" y="525" width="130" height="70" as="geometry" />
        </mxCell>
        <mxCell id="IcS0ZcLBkt1m_JvbGS-I-94" value="info" style="rounded=0;whiteSpace=wrap;html=1;" vertex="1" parent="1">
          <mxGeometry x="1710" y="525" width="100" height="70" as="geometry" />
        </mxCell>
        <mxCell id="IcS0ZcLBkt1m_JvbGS-I-95" value="image" style="rounded=0;whiteSpace=wrap;html=1;" vertex="1" parent="1">
          <mxGeometry x="1540" y="605" width="130" height="70" as="geometry" />
        </mxCell>
        <mxCell id="IcS0ZcLBkt1m_JvbGS-I-96" value="info" style="rounded=0;whiteSpace=wrap;html=1;" vertex="1" parent="1">
          <mxGeometry x="1710" y="605" width="100" height="70" as="geometry" />
        </mxCell>
        <mxCell id="IcS0ZcLBkt1m_JvbGS-I-97" value="" style="rounded=0;whiteSpace=wrap;html=1;" vertex="1" parent="1">
          <mxGeometry x="1950" y="230" width="300" height="600" as="geometry" />
        </mxCell>
        <mxCell id="IcS0ZcLBkt1m_JvbGS-I-98" value="Home Repair" style="rounded=0;whiteSpace=wrap;html=1;" vertex="1" parent="1">
          <mxGeometry x="2040" y="250" width="120" height="30" as="geometry" />
        </mxCell>
        <mxCell id="IcS0ZcLBkt1m_JvbGS-I-99" value="password" style="rounded=0;whiteSpace=wrap;html=1;" vertex="1" parent="1">
          <mxGeometry x="1960" y="370" width="90" height="30" as="geometry" />
        </mxCell>
        <mxCell id="IcS0ZcLBkt1m_JvbGS-I-100" value="" style="rounded=0;whiteSpace=wrap;html=1;" vertex="1" parent="1">
          <mxGeometry x="2060" y="370" width="160" height="30" as="geometry" />
        </mxCell>
        <mxCell id="IcS0ZcLBkt1m_JvbGS-I-101" value="Phone" style="rounded=0;whiteSpace=wrap;html=1;" vertex="1" parent="1">
          <mxGeometry x="1960" y="410" width="90" height="30" as="geometry" />
        </mxCell>
        <mxCell id="IcS0ZcLBkt1m_JvbGS-I-102" value="" style="rounded=0;whiteSpace=wrap;html=1;" vertex="1" parent="1">
          <mxGeometry x="2060" y="410" width="160" height="30" as="geometry" />
        </mxCell>
        <mxCell id="IcS0ZcLBkt1m_JvbGS-I-103" value="Email" style="rounded=0;whiteSpace=wrap;html=1;" vertex="1" parent="1">
          <mxGeometry x="1960" y="450" width="90" height="30" as="geometry" />
        </mxCell>
        <mxCell id="IcS0ZcLBkt1m_JvbGS-I-104" value="" style="rounded=0;whiteSpace=wrap;html=1;" vertex="1" parent="1">
          <mxGeometry x="2060" y="450" width="160" height="30" as="geometry" />
        </mxCell>
        <mxCell id="IcS0ZcLBkt1m_JvbGS-I-105" value="Work Area" style="rounded=0;whiteSpace=wrap;html=1;" vertex="1" parent="1">
          <mxGeometry x="1960" y="490" width="90" height="30" as="geometry" />
        </mxCell>
        <mxCell id="IcS0ZcLBkt1m_JvbGS-I-106" value="" style="rounded=0;whiteSpace=wrap;html=1;" vertex="1" parent="1">
          <mxGeometry x="2060" y="490" width="160" height="30" as="geometry" />
        </mxCell>
        <mxCell id="IcS0ZcLBkt1m_JvbGS-I-107" value="state" style="rounded=0;whiteSpace=wrap;html=1;" vertex="1" parent="1">
          <mxGeometry x="1960" y="530" width="90" height="30" as="geometry" />
        </mxCell>
        <mxCell id="IcS0ZcLBkt1m_JvbGS-I-108" value="" style="rounded=0;whiteSpace=wrap;html=1;" vertex="1" parent="1">
          <mxGeometry x="2060" y="530" width="160" height="30" as="geometry" />
        </mxCell>
        <mxCell id="IcS0ZcLBkt1m_JvbGS-I-109" value="subcode" style="rounded=0;whiteSpace=wrap;html=1;" vertex="1" parent="1">
          <mxGeometry x="1960" y="570" width="90" height="30" as="geometry" />
        </mxCell>
        <mxCell id="IcS0ZcLBkt1m_JvbGS-I-110" value="" style="rounded=0;whiteSpace=wrap;html=1;" vertex="1" parent="1">
          <mxGeometry x="2060" y="570" width="160" height="30" as="geometry" />
        </mxCell>
        <mxCell id="IcS0ZcLBkt1m_JvbGS-I-111" value="experience" style="rounded=0;whiteSpace=wrap;html=1;" vertex="1" parent="1">
          <mxGeometry x="1960" y="625" width="90" height="30" as="geometry" />
        </mxCell>
        <mxCell id="IcS0ZcLBkt1m_JvbGS-I-112" value="" style="rounded=0;whiteSpace=wrap;html=1;" vertex="1" parent="1">
          <mxGeometry x="2060" y="625" width="160" height="105" as="geometry" />
        </mxCell>
        <mxCell id="IcS0ZcLBkt1m_JvbGS-I-113" value="Register" style="rounded=1;whiteSpace=wrap;html=1;" vertex="1" parent="1">
          <mxGeometry x="1970" y="755" width="100" height="30" as="geometry" />
        </mxCell>
        <mxCell id="IcS0ZcLBkt1m_JvbGS-I-114" value="Cancel" style="rounded=1;whiteSpace=wrap;html=1;" vertex="1" parent="1">
          <mxGeometry x="2100" y="755" width="100" height="30" as="geometry" />
        </mxCell>
        <mxCell id="IcS0ZcLBkt1m_JvbGS-I-115" value="" style="rounded=0;whiteSpace=wrap;html=1;" vertex="1" parent="1">
          <mxGeometry x="2320" y="230" width="300" height="510" as="geometry" />
        </mxCell>
        <mxCell id="IcS0ZcLBkt1m_JvbGS-I-116" value="Home Repair" style="rounded=0;whiteSpace=wrap;html=1;" vertex="1" parent="1">
          <mxGeometry x="2420" y="240" width="120" height="30" as="geometry" />
        </mxCell>
        <mxCell id="IcS0ZcLBkt1m_JvbGS-I-119" value="Email/Phone" style="rounded=0;whiteSpace=wrap;html=1;" vertex="1" parent="1">
          <mxGeometry x="2340" y="382.5" width="90" height="30" as="geometry" />
        </mxCell>
        <mxCell id="IcS0ZcLBkt1m_JvbGS-I-120" value="" style="rounded=0;whiteSpace=wrap;html=1;" vertex="1" parent="1">
          <mxGeometry x="2440" y="382.5" width="160" height="30" as="geometry" />
        </mxCell>
        <mxCell id="IcS0ZcLBkt1m_JvbGS-I-121" value="password" style="rounded=0;whiteSpace=wrap;html=1;" vertex="1" parent="1">
          <mxGeometry x="2340" y="450" width="90" height="30" as="geometry" />
        </mxCell>
        <mxCell id="IcS0ZcLBkt1m_JvbGS-I-122" value="" style="rounded=0;whiteSpace=wrap;html=1;" vertex="1" parent="1">
          <mxGeometry x="2440" y="450" width="160" height="30" as="geometry" />
        </mxCell>
        <mxCell id="IcS0ZcLBkt1m_JvbGS-I-131" value="Login" style="rounded=1;whiteSpace=wrap;html=1;" vertex="1" parent="1">
          <mxGeometry x="2350" y="685" width="100" height="30" as="geometry" />
        </mxCell>
        <mxCell id="IcS0ZcLBkt1m_JvbGS-I-132" value="Cancel" style="rounded=1;whiteSpace=wrap;html=1;" vertex="1" parent="1">
          <mxGeometry x="2480" y="685" width="100" height="30" as="geometry" />
        </mxCell>
        <mxCell id="IcS0ZcLBkt1m_JvbGS-I-133" value="Name" style="rounded=0;whiteSpace=wrap;html=1;" vertex="1" parent="1">
          <mxGeometry x="1960" y="320" width="90" height="30" as="geometry" />
        </mxCell>
        <mxCell id="IcS0ZcLBkt1m_JvbGS-I-134" value="" style="rounded=0;whiteSpace=wrap;html=1;" vertex="1" parent="1">
          <mxGeometry x="2060" y="320" width="160" height="30" as="geometry" />
        </mxCell>
      </root>
    </mxGraphModel>
  </diagram>
</mxfile>
